<?xml version="1.0"?>
<svg xmlns="http://www.w3.org/2000/svg" xmlns:xlink="http://www.w3.org/1999/xlink" version="1.1" id="Layer_1" x="0px" y="0px" viewBox="0 0 511.996 511.996" style="enable-background:new 0 0 511.996 511.996;" xml:space="preserve" width="512px" height="512px" class=""><g><g>
	<g>
		<path d="M501.323,0h-128c-5.893,0-10.666,4.774-10.666,10.662v235.344c-36.127,3.054-63.893,14.803-82.629,34.99    c-16.406,17.715-21.656,37.588-23.303,49.656h-46.476l-9.211-7.098c-1.867-1.432-4.167-2.215-6.515-2.215h-24.196    c-2.99,0-5.843,1.244-7.867,3.449l-21.03,22.99c-1.015,1.109-1.785,2.402-2.25,3.844    c-24.647,74.059-28.407,121.461-11.495,144.912c7.29,10.107,18.137,15.461,31.353,15.461c11.485,0,27.735-5.725,39.946-32.971    c2.529-5.656,4.461-11.285,5.867-16.068c5.344,4,11.976,6.383,19.147,6.383c9.451,0,17.961-4.129,23.818-10.688h37.681    c5.873,6.559,14.373,10.688,23.824,10.688c7.49,0,14.393-2.6,19.834-6.941c1.432,4.912,3.402,10.754,6.029,16.627    c12.215,27.246,28.471,32.971,39.951,32.971c13.234,0,24.059-5.354,31.363-15.461c16.9-23.451,13.146-70.854-11.5-144.912    c-0.471-1.441-1.236-2.734-2.256-3.844l-21.029-22.99c-2.02-2.205-4.873-3.449-7.873-3.449h-24.183    c-2.344,0-4.646,0.783-6.5,2.215l-9.227,7.098h-45.607c1.236-6.873,3.99-16.344,10.098-25.812    c6.658-10.314,16.049-18.688,27.932-24.893c12.646-6.609,28.197-10.795,46.305-12.51v20.559c0,5.893,4.773,10.656,10.666,10.656    h128c5.893,0,10.668-4.764,10.668-10.656V10.662C511.991,4.774,507.216,0,501.323,0z M223.999,447.996    c-5.882,0-10.672-4.785-10.672-10.656c0-5.893,4.79-10.688,10.672-10.688c5.873,0,10.662,4.795,10.662,10.688    C234.662,443.211,229.872,447.996,223.999,447.996z M309.323,447.996c-5.893,0-10.666-4.785-10.666-10.656    c0-5.893,4.773-10.688,10.666-10.688s10.676,4.795,10.676,10.688C319.999,443.211,315.216,447.996,309.323,447.996z     M327.53,380.867c2.02-2,3.127-4.717,3.127-7.561l-0.02-21.783c1.235-0.371,2.403-0.949,3.452-1.744l9.205-7.127h15.863    l16.305,17.844c28.039,85.088,20.676,113.932,13.725,123.559c-2.029,2.844-5.725,6.588-14.049,6.588    c-9.295,0-16.188-10.881-20.324-20.029c-5.422-11.961-7.656-24.342-7.656-24.451c-0.627-3.471-2.844-6.293-5.844-7.764    c0-0.344,0.01-0.717,0.01-1.059c0-17.658-14.354-32-32-32c-17.637,0-32,14.342-32,32H256c0-17.658-14.363-32-32-32    c-17.647,0-32.01,14.342-32.01,32c0,0.5,0.02,1.029,0.039,1.529c-2.559,1.559-4.441,4.156-4.99,7.283    c-0.024,0.119-2.25,12.5-7.667,24.461c-4.146,9.148-11.029,20.029-20.333,20.029c-8.328,0-12.01-3.744-14.054-6.588    c-6.937-9.627-14.314-38.471,13.721-123.559l16.323-17.844h15.853l9.22,7.127c0.809,0.619,1.711,1.119,2.652,1.48l-0.093,22.01    c-0.015,2.844,1.103,5.57,3.113,7.58c2,2.02,4.716,3.146,7.554,3.146h106.671C322.823,383.994,325.53,382.867,327.53,380.867z     M309.313,351.996v10.656h-85.275l0.044-10.656H309.313z M490.647,277.338H384.001V21.333h106.646V277.338z" data-original="#000000" class="active-path" data-old_color="#F6EFEF" fill="#F7F1F1"/>
	</g>
</g><g>
	<g>
		<path d="M469.323,42.662h-64c-5.891,0-10.666,4.784-10.666,10.671c0,5.893,4.776,10.667,10.666,10.667h64    c5.893,0,10.668-4.774,10.668-10.667C479.991,47.446,475.216,42.662,469.323,42.662z" data-original="#000000" class="active-path" data-old_color="#F6EFEF" fill="#F7F1F1"/>
	</g>
</g><g>
	<g>
		<path d="M469.323,85.334h-64c-5.891,0-10.666,4.774-10.666,10.666c0,5.888,4.776,10.662,10.666,10.662h64    c5.893,0,10.668-4.774,10.668-10.662C479.991,90.108,475.216,85.334,469.323,85.334z" data-original="#000000" class="active-path" data-old_color="#F6EFEF" fill="#F7F1F1"/>
	</g>
</g><g>
	<g>
		<path d="M469.323,127.995h-64c-5.891,0-10.666,4.774-10.666,10.667s4.776,10.672,10.666,10.672h64    c5.893,0,10.668-4.779,10.668-10.672S475.216,127.995,469.323,127.995z" data-original="#000000" class="active-path" data-old_color="#F6EFEF" fill="#F7F1F1"/>
	</g>
</g><g>
	<g>
		<path d="M437.323,202.662c-5.891,0-10.676,4.779-10.676,10.672c0,5.888,4.785,10.662,10.676,10.662    c5.893,0,10.678-4.774,10.678-10.662C448.001,207.441,443.216,202.662,437.323,202.662z" data-original="#000000" class="active-path" data-old_color="#F6EFEF" fill="#F7F1F1"/>
	</g>
</g><g>
	<g>
		<path d="M170.666,202.662c-5.892,0-10.667,4.779-10.667,10.672c0,5.888,4.774,10.662,10.667,10.662    c5.887,0,10.662-4.774,10.662-10.662C181.328,207.441,176.554,202.662,170.666,202.662z" data-original="#000000" class="active-path" data-old_color="#F6EFEF" fill="#F7F1F1"/>
	</g>
</g><g>
	<g>
		<path d="M319.998,0H21.332C9.547,0,0.003,9.554,0.003,21.333v202.663c0,11.784,9.544,21.338,21.329,21.338h100.544l-9.127,32.004    h-6.084c-5.892,0-10.666,4.766-10.666,10.658c0,5.892,4.774,10.656,10.666,10.656h127.996c5.892,0,10.667-4.763,10.667-10.656    s-4.775-10.658-10.667-10.658h-6.094l-9.137-32.004h100.568c11.775,0,21.324-9.554,21.324-21.338V21.333    C341.322,9.554,331.773,0,319.998,0z M134.932,277.337l9.108-31.93l53.221-0.02l9.123,31.95H134.932z M319.998,223.996H170.666    H21.332v-21.334h149.333h149.333V223.996z M319.999,181.334H21.332V21.333h298.667V181.334z" data-original="#000000" class="active-path" data-old_color="#F6EFEF" fill="#F7F1F1"/>
	</g>
</g></g> </svg>
