<?xml version="1.0"?>
<svg xmlns="http://www.w3.org/2000/svg" xmlns:xlink="http://www.w3.org/1999/xlink" version="1.1" id="Capa_1" x="0px" y="0px" viewBox="0 0 301.77 301.77" style="enable-background:new 0 0 301.77 301.77;" xml:space="preserve" width="512px" height="512px"><g><g>
	<g>
		<path d="M300.285,221.885c-2.8-11.6-8.4-22.4-17.2-31.2c-8.8-8.8-20-14.8-31.2-17.2c-10.4-2.4-21.6-2.4-32,0.8l-92.4-92    c2.8-10.4,3.2-21.6,0.8-32c-2.8-11.6-8.4-22.4-17.2-31.2s-20-14.8-31.2-17.2c-11.6-2.8-24-2-35.6,1.6c-0.8,0.4-2,0.8-2.8,1.6    c-2.4,2.4-2.4,6.4,0,8.8l35.2,35.2l-27.6,27.6l-35.2-35.2c-0.8-0.8-1.6-1.2-2.4-1.6c-3.2-1.2-6.8,0.8-8,4c-4,11.6-4.4,24-2,36    c2.8,11.2,8.4,22,17.2,30.8c8.8,8.8,20,14.8,31.2,17.2c10.4,2.4,21.6,2.4,32-0.8l92.4,92.4c-2.8,10.4-3.2,21.6-0.8,32    c2.8,11.6,8.4,22.4,17.2,31.2c8.8,8.8,20,14.8,31.2,17.2c11.6,2.8,24,2,35.6-1.6c0.8-0.4,2-0.8,2.8-1.6c2.4-2.4,2.4-6.4,0-8.8    l-35.2-35.2l27.6-27.6l35.2,35.2c0.8,0.8,1.6,1.2,2.4,1.6c3.2,1.2,6.8-0.8,8-4C302.285,246.285,302.685,233.885,300.285,221.885z     M289.485,243.485l-31.6-31.6c-2.4-2.4-6.4-2.4-8.8,0l-36.4,36.4c-2.4,2.4-2.4,6.4,0,8.8l31.6,31.6c-6,0.8-12.4,0.4-18.4-0.8    c-9.2-2-18-6.8-25.2-14s-12-16-14-25.2c-2.4-9.6-1.6-19.6,1.6-28.8c0.8-2.4,0-4.8-1.6-6.4l-98.4-97.6c-2-2-4.4-2.4-6.8-1.6    c-9.2,3.2-19.2,3.6-28.8,1.6c-9.2-2-18-6.8-25.2-14c-7.2-7.2-12-16-14-25.2c-1.2-6-1.2-12.4-0.4-18.4l31.6,31.6    c2.4,2.4,6.4,2.4,8.8,0l36.4-36.4c2.4-2.4,2.4-6.4,0-8.8l-31.6-31.6c6-0.8,12.4-0.4,18.4,0.8c9.2,2,18,6.8,25.2,14    c7.2,7.2,12,16,14,25.2c2.4,9.6,1.6,19.6-1.6,28.8c-0.8,2.4,0,4.8,1.6,6.4l98,97.6c2,2,4.4,2.4,6.8,1.6c9.2-3.2,19.2-3.6,28.8-1.6    c9.2,2,18,6.8,25.2,14s12,16,14,25.2C289.885,231.085,290.285,237.485,289.485,243.485z" data-original="#FDF7F7" class="active-path" data-old_color=" rgb(253, 247, 247)" fill="#FDF7F7"/>
	</g>
</g></g> </svg>
